# xmcd
#
# Track frame offsets: 
#        150
#        21868
#        35589
#        52348
#        70663
#        90006
#        115963
#        128468
#        149863
#        166816
#        184084
#
# Disc length: 2764 seconds
#
# Revision: 0
# Processed by: cddbd v1.5.2PL0 Copyright (c) Steve Scherf et al.
# Submitted via: ExactAudioCopy v0.99pb4
#
DISCID=940aca0b
DTITLE=Reddan Brothers Band - Skeleton Key Sessions
DYEAR=2009
DGENRE=Blues
TTITLE0=Fast World
TTITLE1=Off The Top
TTITLE2=That's How I Know
TTITLE3=Carry With The Times
TTITLE4=Cradle Of Love
TTITLE5=Wherever You Go
TTITLE6=If Whiskey Was A River
TTITLE7=I Beat The Dealer
TTITLE8=Beat Of The City
TTITLE9=Black Water
TTITLE10=Halloween Song
EXTD=
EXTT0=
EXTT1=
EXTT2=
EXTT3=
EXTT4=
EXTT5=
EXTT6=
EXTT7=
EXTT8=
EXTT9=
EXTT10=
PLAYORDER=
